<?xml version="1.0" encoding="UTF-8"?>
<!DOCTYPE svg PUBLIC "-//W3C//DTD SVG 1.1//EN" "http://www.w3.org/Graphics/SVG/1.1/DTD/svg11.dtd">
<!-- Creator: CorelDRAW X8 -->
<svg xmlns="http://www.w3.org/2000/svg" xml:space="preserve" width="177.189mm" height="70.9537mm" version="1.1" style="shape-rendering:geometricPrecision; text-rendering:geometricPrecision; image-rendering:optimizeQuality; fill-rule:evenodd; clip-rule:evenodd"
viewBox="0 0 17655 7070"
 xmlns:xlink="http://www.w3.org/1999/xlink">
 <defs>
  <style type="text/css">
   <![CDATA[
    .fil3 {fill:#FFF212}
    .fil2 {fill:#FFF212}
    .fil0 {fill:white}
    .fil1 {fill:#FEFEFE;fill-opacity:0.200000}
   ]]>
  </style>
   <clipPath id="id0" style="clip-rule:nonzero">
    <path d="M6705 1791c-11,28 -29,52 -64,76 -142,99 -278,208 -402,328 -29,31 -65,48 -94,58 -36,10 -71,7 -95,-7 -371,-202 -737,-407 -1109,-608 -24,-14 -35,-41 -24,-79 6,-38 36,-75 77,-120 183,-178 384,-338 590,-485 53,-34 101,-55 148,-62 47,-10 77,-3 100,17 77,72 154,147 230,219 -65,45 -130,86 -194,133 -83,-68 -160,-136 -242,-205 -177,123 -343,260 -496,407 342,216 690,431 1038,646 113,-106 231,-201 360,-294 -123,-102 -247,-205 -371,-311 -71,51 -136,99 -201,154 -29,-20 -59,-44 -88,-65 123,-99 253,-195 389,-277 142,134 289,270 431,407 23,17 23,41 17,68zm927 -393c-71,-75 -136,-154 -207,-225 -147,44 -283,95 -419,157 36,89 71,178 113,263 -54,24 -101,51 -154,79 0,-4 0,-4 0,-4 -195,-389 -336,-803 -425,-1227 83,-34 165,-65 248,-92 390,307 732,646 1015,1001 -59,14 -118,31 -171,48zm-862 -831c54,230 118,452 195,671 124,-55 254,-103 384,-147 -177,-182 -372,-356 -579,-524zm1275 729c-130,-393 -260,-787 -389,-1180 88,-17 177,-31 265,-44 95,366 189,731 283,1101 160,-24 331,-41 496,-48 0,34 0,65 6,95 -224,11 -443,35 -661,76zm1363 -41c-59,-7 -118,-14 -171,-17 -65,-418 -183,-831 -360,-1238 89,0 177,3 272,7 100,328 171,656 212,988 -6,27 -6,51 -6,78 0,-17 12,-44 24,-78 147,-308 330,-612 549,-910 82,18 171,31 253,48 -312,359 -572,735 -773,1122zm1357 406c-53,-27 -106,-51 -159,-78 41,-86 77,-175 112,-263 -135,-59 -277,-113 -419,-158 -71,76 -141,154 -206,229 -53,-17 -112,-30 -171,-44 0,-3 6,-3 6,-3 283,-356 619,-694 1009,-1006 82,31 165,62 247,93 -82,427 -224,841 -419,1230zm-395 -577c130,41 260,89 384,143 76,-218 141,-444 189,-670 -201,168 -396,346 -573,527zm1233 1210c-23,-27 -53,-58 -82,-86 183,-307 307,-646 372,-1005 -260,223 -520,448 -779,670 -48,-34 -95,-61 -142,-92 331,-318 661,-636 991,-950 59,34 113,68 166,106 -36,362 -142,711 -295,1029 295,-185 596,-369 891,-551 59,55 118,113 171,171 -431,236 -862,472 -1293,708z"/>
   </clipPath>
   <clipPath id="id1" style="clip-rule:nonzero">
    <path d="M6298 5073c-100,-102 -194,-215 -277,-335 -159,69 -313,137 -466,205 88,127 183,247 289,356 -30,20 -59,38 -89,55 -112,-113 -212,-236 -301,-366 -165,72 -324,143 -489,215 118,164 247,322 389,465 -29,17 -59,34 -88,55 -201,-202 -378,-427 -526,-674 431,-160 862,-324 1293,-485 100,164 218,318 354,455 -30,17 -59,37 -89,54zm-507 971c159,116 324,222 496,318 -24,24 -42,48 -65,72 -248,-137 -478,-291 -691,-468 348,-260 696,-517 1045,-776 41,34 82,68 124,99 -307,253 -608,502 -909,755zm1977 -147c-148,-41 -289,-89 -425,-143 -89,123 -171,249 -254,372 148,58 301,110 454,154 -11,27 -29,55 -41,86 -159,-45 -313,-100 -466,-161 -83,130 -171,260 -260,390 195,78 396,143 596,198 -11,27 -23,55 -35,85 -289,-78 -567,-177 -826,-300 242,-322 490,-643 732,-968 182,86 365,150 560,205 -12,28 -23,55 -35,82zm1038 393c-65,0 -130,0 -194,-3 5,-86 17,-168 23,-253 -147,-7 -289,-21 -431,-44 -82,311 -159,618 -242,929 195,28 396,48 591,59 11,-93 17,-185 23,-274 77,3 148,3 224,7 -5,92 -5,188 -5,284 0,24 -18,41 -60,54 -35,17 -82,21 -141,21 -236,-10 -472,-34 -702,-72 -53,-10 -101,-27 -130,-48 -30,-20 -42,-41 -36,-65 107,-311 207,-622 313,-933 6,-24 24,-38 53,-48 30,-10 65,-14 101,-7 159,28 318,45 483,51 36,0 71,11 95,24 24,18 41,35 35,59 0,85 0,174 0,259zm673 -297c83,338 171,677 254,1015 -77,14 -160,24 -236,31 -65,-342 -124,-684 -189,-1026 -100,14 -201,21 -301,24 -6,-30 -6,-58 -6,-89 248,-10 502,-41 744,-95 6,27 17,58 29,85 -100,21 -195,41 -295,55zm1369 123c-18,7 -35,14 -59,24 -29,10 -47,20 -59,24 230,106 478,198 744,273 -71,41 -148,79 -219,113 -283,-99 -543,-219 -785,-355 6,-7 12,-17 12,-28 112,-37 219,-85 325,-133 -89,-120 -183,-236 -272,-356 -129,62 -265,117 -407,161 177,318 348,636 525,954 -76,24 -153,48 -230,68 -165,-352 -330,-704 -495,-1056 200,-55 395,-127 578,-215 35,-18 65,-24 100,-24 30,3 53,13 71,30 100,120 207,236 307,356 41,44 -6,102 -136,164zm938 137c-306,-291 -613,-578 -920,-865 41,-31 88,-62 130,-92 324,273 655,550 979,823 -65,45 -124,89 -189,134zm1080 -1053c-124,184 -265,359 -425,516 -35,38 -76,65 -118,79 -35,13 -70,13 -88,-4 -313,-212 -626,-420 -932,-632 -24,-14 -36,-34 -30,-62 0,-27 18,-51 41,-78 107,-110 207,-226 295,-353 18,-34 42,-54 71,-68 36,-17 59,-17 89,-7 100,38 200,72 301,110 -30,54 -65,106 -101,154 -94,-38 -189,-79 -283,-120 -77,113 -165,219 -260,314 319,195 638,387 956,578 130,-133 254,-277 360,-434 -100,-44 -206,-89 -306,-133 41,-58 76,-117 112,-178 112,41 218,82 330,123 24,10 41,34 36,72 0,34 -18,78 -48,123z"/>
   </clipPath>
 </defs>
 <g id="Capa_x0020_1">
  <metadata id="CorelCorpID_0Corel-Layer"/>
  <g style="clip-path:url(#id0)">
   <image x="-1055" y="-1521" width="20819" height="12061" xlink:href="galvan electric logo redondo 2023 rayo AMARILLO_Images\galvan electric logo redondo 2023 rayo AMARILLO_ImgID1.png"/>
  </g>
  <path class="fil0" d="M6705 1791c-11,28 -29,52 -64,76 -142,99 -278,208 -402,328 -29,31 -65,48 -94,58 -36,10 -71,7 -95,-7 -371,-202 -737,-407 -1109,-608 -24,-14 -35,-41 -24,-79 6,-38 36,-75 77,-120 170,-165 356,-316 547,-454l-4 0 47 -31c53,-34 101,-55 148,-62 47,-10 77,-3 100,17l83 76 -4 0c51,48 101,96 151,143 -65,45 -130,86 -194,133 -83,-68 -160,-136 -242,-205 -169,118 -327,247 -474,387l-8 6 -7 7 -7 7 212 130 260 165c156,97 312,194 469,291l16 10 16 10 17 10 16 10 16 10 16 10c113,-106 231,-201 360,-294 -123,-102 -247,-205 -371,-311l-118 89 -83 65c-29,-20 -59,-44 -88,-65 123,-99 253,-195 389,-277 90,85 182,171 274,258l21 19 34 33 2 2 2 2 2 2 2 2c30,28 60,56 90,85l2 2 2 2 1 1 1 1 1 0 0 0c14,12 18,24 18,39 0,8 -1,18 -4,27zm110 -1044l-39 -162 -6 -18c24,20 47,39 71,58l154 134 246 224c37,36 73,72 108,108 -130,44 -260,92 -384,147 -29,-84 -57,-168 -83,-253l1 0 -61 -211 -7 -27zm-245 -162l47 174 2 6c86,311 201,614 346,903 0,0 0,0 0,4 53,-28 100,-55 154,-79l-89 -208 -2 0 -22 -55c136,-62 272,-113 419,-157 71,71 136,150 207,225l47 -13 -3 0c41,-13 84,-25 127,-35 -208,-261 -448,-513 -716,-751l-16 -14 -13 -11c-87,-77 -177,-152 -270,-225 -83,27 -165,58 -248,92l30 144zm1527 168l-40 -168 -136 -513c-88,13 -177,27 -265,44l153 469 50 148 186 563c218,-41 437,-65 661,-76 -6,-30 -6,-61 -6,-95 -165,7 -336,24 -496,48l-48 -188 1 0 -52 -198 -8 -34zm1210 -105l-11 -63 -7 -30c-38,-183 -85,-366 -140,-548 -95,-4 -183,-7 -272,-7l213 585 47 174 53 226 1 0c18,84 33,168 46,253 53,3 112,10 171,17 47,-91 98,-181 151,-270l3 0 141 -226 95 -140c13,-18 25,-35 37,-52l346 -434c-82,-17 -171,-30 -253,-48 -119,162 -227,325 -324,489l-7 11 -8 15c-77,131 -147,263 -210,395 -12,34 -24,61 -24,78 0,-27 0,-51 6,-78l-1 -10 1 0 -8 -50c-13,-96 -28,-192 -46,-287zm1459 61l147 -124 30 -28 -6 28 -42 174 -27 103c-34,123 -72,245 -114,365 -124,-54 -254,-102 -384,-143 125,-128 258,-254 396,-375zm442 1086l236 -202 180 -159c90,-77 179,-154 269,-231 -14,77 -31,153 -50,228l-51 162 -71 202 -200 413c29,28 59,59 82,86l909 -496 372 -205 12 -7c-53,-58 -112,-116 -171,-171l-15 9c-290,179 -586,360 -876,542 19,-40 37,-81 55,-122l21 -46 18 -46c16,-41 32,-83 47,-126l12 -33 65 -208 -4 0c38,-146 66,-296 81,-448 -53,-38 -107,-72 -166,-106 -330,314 -660,632 -991,950 21,14 42,27 64,40l78 52 94 -78zm-475 -150l33 16 35 -68 16 -37c87,-186 162,-377 225,-571l1 0 6 -24c56,-174 101,-351 135,-530 -82,-31 -165,-62 -247,-93 -390,312 -726,650 -1009,1006 0,0 -6,0 -6,3 51,12 102,24 149,38l-2 0 24 6 3 -3 3 -3c63,-74 132,-150 200,-223 142,45 284,99 419,158 -8,21 -17,43 -26,65l-3 0 -83 198c43,22 85,41 127,62z"/>
  <g style="clip-path:url(#id1)">
   <image x="-1055" y="-1521" width="20819" height="12061" xlink:href="galvan electric logo redondo 2023 rayo AMARILLO_Images\galvan electric logo redondo 2023 rayo AMARILLO_ImgID2.png"/>
  </g>
  <g>
   <path class="fil0" d="M6298 5073c-100,-102 -194,-215 -277,-335 -159,69 -313,137 -466,205l125 169c15,19 30,37 45,55l119 132c-30,20 -59,38 -89,55 -112,-113 -212,-236 -301,-366l-348 154 -110 48 -3 1 -2 1 -4 2 -2 1 -3 1 -2 1 -2 0 -2 1 -2 1 -3 1 -2 1 -2 1 -2 1 163 213 8 10 48 57c55,64 112,126 170,185 -29,17 -59,34 -88,55 -55,-55 -108,-112 -160,-171l0 0 0 -1c-29,-32 -57,-66 -84,-99l-28 -33 -11 -17c-88,-112 -169,-230 -243,-353 431,-160 862,-324 1293,-485 100,164 218,318 354,455 -30,17 -59,37 -89,54zm254 339l148 -123c-42,-31 -83,-65 -124,-99 -348,259 -697,516 -1045,776 79,66 161,129 245,189l3 2 2 2c140,99 287,190 441,275 14,-14 26,-29 38,-43l27 -29 -314 -191c-22,-15 -45,-30 -67,-46l-115 -81 65 -51 -4 0c178,-150 357,-299 537,-448l4 0 159 -133zm4444 -116l-57 40 -2 1c-24,17 -49,34 -71,51l177 167 2 0c155,146 311,292 466,438l-2 0 128 119 149 141c31,-21 60,-42 88,-62l48 -34 52 -36 0 -1 1 -1c-222,-187 -447,-375 -671,-564l4 0 -247 -205 0 0 -65 -54zm341 -113l243 167 301 205 5 0c116,79 232,157 349,236 18,17 53,17 88,4 42,-14 83,-41 118,-79 114,-112 219,-233 314,-360l5 -6 9 -12c33,-45 66,-91 97,-138 30,-45 48,-89 48,-123 5,-38 -12,-62 -36,-72 -112,-41 -218,-82 -330,-123 -36,61 -71,120 -112,178 100,44 206,89 306,133l-118 157 -177 205 4 0c-23,25 -46,49 -69,72l-119 -72 1 0 -341 -205 -1 0 -7 -4c-163,-98 -326,-197 -489,-297 95,-95 183,-201 260,-314 94,41 189,82 283,120 36,-48 71,-100 101,-154 -101,-38 -201,-72 -301,-110 -30,-10 -53,-10 -89,7 -29,14 -53,34 -71,68 -88,127 -188,243 -295,353 -23,27 -41,51 -41,78 -6,28 6,48 30,62l4 3 4 3 5 3 4 3 4 3 5 3 4 3 4 3zm-4165 974l-83 -31c83,-123 165,-249 254,-372 136,54 277,102 425,143 12,-27 23,-54 35,-82 -195,-55 -378,-119 -560,-205 -136,182 -274,363 -411,544l-3 3 -200 263 -118 158c259,123 537,222 826,300 12,-30 24,-58 35,-85 -200,-55 -401,-120 -596,-198 89,-130 177,-260 260,-390 153,61 307,116 466,161 12,-31 30,-59 41,-86l-371 -123zm991 0l41 -164 -1 0 1 -3c142,23 284,37 431,44l-12 123 -2 25c-4,35 -7,70 -9,105 64,3 129,3 194,3l0 -4 0 -4 0 -4 0 -4 0 -4 0 -4 0 -4 0 -4 0 -4 0 -4 0 -4 0 -4 0 -4 0 -4 0 -4 0 -4 0 -4 0 -4 0 -4 0 -5 0 -4 0 -4 0 -4 0 -4 0 -4 0 -4 0 -4 0 -4 0 -4 0 -4 0 -4 0 -5 0 -3 0 -126c6,-24 -11,-41 -35,-59 -24,-13 -59,-23 -95,-23 -165,-7 -324,-24 -483,-52 -36,-7 -71,-3 -101,7 -29,10 -47,24 -53,48 -16,47 -32,94 -48,142l-23 63 -23 74c-73,218 -144,436 -219,654 -6,24 6,45 36,65 29,21 77,38 130,48 230,38 466,62 702,72 59,0 106,-4 141,-21 42,-13 60,-30 60,-54 0,-96 0,-192 5,-284 -76,-4 -147,-4 -224,-7 -6,89 -12,181 -23,274 -195,-11 -396,-31 -591,-59 43,-160 84,-319 125,-478l5 -21 71 -263zm1357 0l-41 -164c100,-14 195,-34 295,-55 -12,-27 -23,-58 -29,-85 -242,54 -496,85 -744,96 0,15 0,29 1,44l-1 0 1 11c1,11 3,22 5,33 100,-3 201,-10 301,-24l24 144 37 187c42,232 84,463 128,695 76,-7 159,-17 236,-31 -53,-216 -108,-432 -163,-649l-50 -202zm785 0l-33 -58c-48,-87 -96,-173 -144,-260 142,-44 278,-99 407,-161 89,120 183,236 272,356l-295 123 -30 10c0,11 -6,21 -12,28 242,136 502,256 785,355 71,-34 148,-72 219,-113l-59 -17c-50,-14 -98,-29 -146,-45l-1 0 -10 -4 -1 0 -10 -3 -1 -1c-181,-60 -353,-128 -516,-203 4,-1 8,-3 13,-5l1 0 4 -2 41 -17c24,-10 41,-17 59,-24l5 -2 1 -1c37,-17 66,-34 88,-51l1 0 2 -2c54,-41 67,-78 39,-108 -100,-120 -207,-236 -307,-356 -18,-17 -41,-27 -71,-30 -35,0 -65,6 -100,24 -183,88 -378,160 -578,215l165 352 5 11 325 693c77,-20 154,-44 230,-68l-200 -373 -148 -263zm756 -807l0 0 0 0z"/>
  </g>
  <path class="fil1" d="M13684 6188l1387 -1176c189,103 406,162 637,162 733,0 1327,-594 1327,-1327 0,-414 -190,-784 -487,-1027l1107 -1511 -1494 1290c-141,-51 -294,-79 -453,-79 -733,0 -1328,594 -1328,1327 0,387 166,735 431,978l-1127 1363zm1536 -1303l1463 -1242 -707 -42 465 -635c252,210 413,527 413,881 0,633 -513,1146 -1146,1146 -175,0 -340,-39 -488,-108zm780 -2147l-1366 1180 962 -43 -670 810c-224,-209 -364,-507 -364,-838 0,-633 513,-1146 1146,-1146 101,0 199,13 292,37z"/>
  <path class="fil1" d="M3971 6188l-1386 -1176c-190,103 -407,162 -638,162 -733,0 -1327,-594 -1327,-1327 0,-414 190,-784 487,-1027l-1107 -1511 1494 1290c141,-51 294,-79 453,-79 733,0 1328,594 1328,1327 0,387 -166,735 -431,978l1127 1363zm-1536 -1303l-1463 -1242 707 -42 -465 -635c-252,210 -413,527 -413,881 0,633 513,1146 1146,1146 175,0 340,-39 488,-108zm-780 -2147l1366 1180 -961 -43 669 810c224,-209 364,-507 364,-838 0,-633 -513,-1146 -1146,-1146 -101,0 -198,13 -292,37z"/>
  <path class="fil2" d="M8746 2495c571,0 1035,463 1035,1034 0,572 -464,1035 -1035,1035 -571,0 -1034,-463 -1034,-1035 0,-571 463,-1034 1034,-1034zm0 141c493,0 893,400 893,893 0,494 -400,894 -893,894 -493,0 -893,-400 -893,-894 0,-493 400,-893 893,-893z"/>
  <polygon class="fil3" points="7169,5354 9506,3370 8955,3337 10264,1551 7910,3584 8659,3551 "/>
 </g>
</svg>
