<?xml version="1.0" encoding="UTF-8"?>
<!DOCTYPE svg PUBLIC "-//W3C//DTD SVG 1.1//EN" "http://www.w3.org/Graphics/SVG/1.1/DTD/svg11.dtd">
<!-- Creator: CorelDRAW X8 -->
<svg xmlns="http://www.w3.org/2000/svg" xml:space="preserve" width="177.189mm" height="70.9537mm" version="1.1" style="shape-rendering:geometricPrecision; text-rendering:geometricPrecision; image-rendering:optimizeQuality; fill-rule:evenodd; clip-rule:evenodd"
viewBox="0 0 16810 6732"
 xmlns:xlink="http://www.w3.org/1999/xlink">
 <defs>
  <style type="text/css">
   <![CDATA[
    .fil4 {fill:#FEFEFE}
    .fil3 {fill:#FEFEFE}
    .fil5 {fill:#FFF212}
    .fil2 {fill:#FFF212}
    .fil0 {fill:white}
    .fil1 {fill:#FEFEFE;fill-opacity:0.200000}
   ]]>
  </style>
   <clipPath id="id0" style="clip-rule:nonzero">
    <path d="M6385 1706c-12,26 -28,48 -62,71 -135,95 -264,199 -382,313 -28,29 -62,45 -90,55 -34,10 -68,7 -90,-6 -354,-192 -702,-388 -1056,-580 -23,-13 -34,-39 -23,-75 6,-35 34,-71 73,-114 174,-169 365,-322 562,-462 51,-32 96,-52 141,-58 44,-10 73,-4 95,16 73,68 146,140 219,208 -62,42 -123,82 -185,127 -79,-65 -152,-130 -231,-195 -168,117 -326,247 -472,387 326,205 658,410 989,615 107,-101 219,-192 343,-280 -118,-97 -236,-195 -354,-296 -67,49 -129,95 -191,147 -28,-20 -56,-43 -84,-62 118,-95 241,-186 371,-264 134,127 275,257 410,388 22,16 22,39 17,65zm882 -375c-68,-71 -129,-146 -197,-215 -140,43 -270,92 -399,150 34,85 68,169 107,251 -51,23 -96,49 -146,75 0,-4 0,-4 0,-4 -186,-371 -320,-764 -405,-1168 79,-33 158,-62 236,-88 371,293 697,615 967,954 -56,13 -113,29 -163,45zm-821 -791c51,218 113,430 186,638 118,-52 241,-97 365,-140 -169,-172 -354,-338 -551,-498zm1214 694c-124,-375 -247,-749 -371,-1123 85,-17 169,-30 253,-43 90,349 180,697 270,1048 151,-22 314,-39 472,-45 0,32 0,62 5,91 -213,10 -421,33 -629,72zm1298 -39c-56,-7 -112,-13 -163,-17 -62,-397 -174,-791 -343,-1178 85,0 169,3 259,7 95,312 163,624 202,940 -6,26 -6,49 -6,75 0,-16 12,-42 23,-75 140,-293 315,-582 522,-866 79,17 163,30 242,46 -298,342 -545,700 -736,1068zm1292 387c-50,-26 -101,-49 -151,-75 39,-81 73,-166 106,-251 -129,-55 -264,-107 -399,-149 -67,71 -134,146 -196,218 -51,-16 -107,-29 -163,-43 0,-3 5,-3 5,-3 270,-338 590,-661 961,-957 79,30 158,59 236,88 -78,407 -213,801 -399,1172zm-376 -550c123,39 247,84 365,137 73,-209 135,-424 180,-638 -191,159 -377,328 -545,501zm1174 1152c-22,-26 -50,-55 -78,-81 174,-293 292,-615 354,-957 -248,211 -495,426 -742,638 -45,-33 -90,-59 -135,-88 315,-303 629,-606 944,-905 56,33 107,65 157,101 -33,345 -135,677 -281,980 281,-176 568,-352 849,-524 56,52 112,107 163,162 -410,225 -821,450 -1231,674z"/>
   </clipPath>
   <clipPath id="id1" style="clip-rule:nonzero">
    <path d="M5997 4831c-96,-98 -186,-206 -264,-319 -152,65 -298,130 -444,195 84,120 174,234 275,338 -28,20 -56,36 -84,52 -107,-107 -202,-224 -287,-348 -157,69 -309,137 -466,205 112,156 236,306 371,443 -28,16 -56,32 -84,52 -191,-192 -360,-407 -500,-641 410,-153 820,-309 1230,-462 96,156 208,302 337,432 -28,17 -56,36 -84,53zm-483 924c151,111 309,212 472,303 -23,22 -40,45 -62,68 -236,-130 -455,-277 -658,-446 332,-247 663,-491 995,-739 39,33 79,65 118,95 -292,240 -579,478 -865,719zm1882 -140c-140,-39 -275,-85 -405,-137 -84,117 -163,238 -241,355 140,55 286,104 432,147 -11,26 -28,52 -39,81 -152,-42 -298,-94 -444,-153 -78,124 -163,247 -247,371 185,75 376,137 568,189 -12,26 -23,52 -34,81 -276,-75 -540,-169 -787,-286 231,-306 467,-612 697,-921 174,81 348,143 534,195 -12,26 -23,52 -34,78zm989 374c-62,0 -124,0 -186,-3 6,-81 17,-159 23,-241 -141,-6 -275,-19 -410,-42 -79,296 -152,589 -231,885 186,26 377,46 562,56 12,-88 17,-176 23,-261 73,3 140,3 213,7 -5,88 -5,179 -5,270 0,23 -17,39 -57,52 -33,16 -78,20 -134,20 -225,-10 -450,-33 -669,-69 -51,-10 -96,-26 -124,-45 -28,-20 -39,-39 -33,-62 101,-296 196,-593 297,-889 6,-23 23,-36 51,-45 28,-10 62,-14 96,-7 151,26 303,42 460,49 34,0 68,10 90,23 23,16 40,32 34,55 0,81 0,166 0,247zm640 -283c79,322 163,645 242,967 -73,13 -152,23 -225,29 -62,-325 -118,-651 -180,-976 -95,13 -191,19 -286,22 -6,-29 -6,-55 -6,-84 236,-10 478,-39 708,-91 6,26 17,55 28,81 -95,20 -185,39 -281,52zm1304 117c-17,7 -34,13 -56,23 -28,10 -45,20 -56,23 219,101 455,189 708,260 -68,39 -141,75 -208,108 -270,-95 -517,-209 -748,-339 6,-6 12,-16 12,-26 106,-36 208,-81 309,-127 -85,-114 -175,-224 -259,-338 -123,58 -253,110 -388,153 169,302 332,605 501,908 -73,23 -147,45 -220,65 -157,-335 -314,-671 -472,-1006 191,-52 377,-120 551,-205 34,-16 62,-23 96,-23 28,4 50,13 67,30 96,113 197,224 292,338 40,42 -5,98 -129,156zm893 131c-292,-277 -584,-551 -876,-824 39,-29 84,-59 123,-88 309,261 624,524 933,785 -62,42 -118,84 -180,127zm1029 -1003c-118,176 -253,342 -405,491 -34,36 -73,62 -112,75 -34,13 -68,13 -85,-3 -297,-202 -595,-400 -887,-602 -23,-13 -34,-33 -28,-59 0,-26 16,-49 39,-75 101,-104 197,-214 281,-335 17,-32 39,-52 67,-65 34,-16 56,-16 85,-6 95,35 191,68 286,104 -28,52 -62,101 -95,146 -90,-36 -180,-75 -270,-114 -73,108 -157,209 -247,300 303,185 606,368 910,550 123,-127 241,-264 343,-414 -96,-42 -197,-84 -293,-126 40,-56 73,-111 107,-170 107,39 208,78 315,117 22,10 39,33 34,69 0,32 -17,75 -45,117z"/>
   </clipPath>
   <mask id="id2">
  <linearGradient id="id3" gradientUnits="userSpaceOnUse" x1="7301.45" y1="3072.36" x2="7691.4" y2="3162.09">
   <stop offset="0" style="stop-opacity:1; stop-color:white"/>
   <stop offset="1" style="stop-opacity:0; stop-color:white"/>
  </linearGradient>
    <rect style="fill:url(#id3)" x="7333" y="2366" width="1989" height="1989"/>
   </mask>
   <mask id="id4">
  <linearGradient id="id5" gradientUnits="userSpaceOnUse" x1="8219.36" y1="3003.36" x2="7922.59" y2="2889.48">
   <stop offset="0" style="stop-opacity:1; stop-color:white"/>
   <stop offset="1" style="stop-opacity:0; stop-color:white"/>
  </linearGradient>
    <rect style="fill:url(#id5)" x="7333" y="2366" width="1989" height="1989"/>
   </mask>
   <mask id="id6">
  <linearGradient id="id7" gradientUnits="userSpaceOnUse" x1="9115.69" y1="3680.62" x2="8747.36" y2="3467.05">
   <stop offset="0" style="stop-opacity:1; stop-color:white"/>
   <stop offset="1" style="stop-opacity:0; stop-color:white"/>
  </linearGradient>
    <rect style="fill:url(#id7)" x="7333" y="2366" width="1989" height="1989"/>
   </mask>
   <mask id="id8">
  <linearGradient id="id9" gradientUnits="userSpaceOnUse" x1="7693.11" y1="3099.14" x2="8207.15" y2="3426.25">
   <stop offset="0" style="stop-opacity:1; stop-color:white"/>
   <stop offset="1" style="stop-opacity:0; stop-color:white"/>
  </linearGradient>
    <rect style="fill:url(#id9)" x="6816" y="1467" width="2966" height="3640"/>
   </mask>
   <mask id="id10">
  <linearGradient id="id11" gradientUnits="userSpaceOnUse" x1="8895.69" y1="3165.54" x2="8567.88" y2="2989.54">
   <stop offset="0" style="stop-opacity:1; stop-color:white"/>
   <stop offset="1" style="stop-opacity:0; stop-color:white"/>
  </linearGradient>
    <rect style="fill:url(#id11)" x="6816" y="1467" width="2966" height="3640"/>
   </mask>
 </defs>
 <g id="Capa_x0020_1">
  <metadata id="CorelCorpID_0Corel-Layer"/>
  <g style="clip-path:url(#id0)">
   <image x="-1004" y="-1449" width="19823" height="11484" xlink:href="logo galvan electric redondo_Images\logo galvan electric redondo_ImgID1.png"/>
  </g>
  <path class="fil0" d="M6385 1706c-12,26 -28,48 -62,71 -135,95 -264,199 -382,313 -28,29 -62,45 -90,55 -34,10 -68,7 -90,-6 -354,-192 -702,-388 -1056,-580 -23,-13 -34,-39 -23,-75 6,-35 34,-71 73,-114 162,-157 339,-301 521,-433l-4 0 45 -29c51,-32 96,-52 140,-58 45,-10 74,-4 96,16l79 71 -3 0c47,46 95,92 143,137 -62,42 -123,82 -185,127 -79,-65 -152,-130 -231,-195 -160,112 -311,235 -451,368l-7 6 -7 7 -7 6 203 124 247 157c148,92 297,185 446,277l16 9 15 10 16 10 15 9 16 10 15 9c107,-101 219,-192 343,-280 -118,-97 -236,-195 -354,-296l-112 85 -79 62c-28,-20 -56,-43 -84,-62 118,-95 241,-186 371,-264 85,81 173,163 261,245l20 19 32 31 2 2 2 2 2 2 2 1c28,28 57,55 85,82l2 2 2 2 1 0 1 1 1 1 0 0c13,11 17,23 17,36 0,8 -1,17 -3,27zm104 -995l-37 -154 -6 -17c23,18 45,37 67,55l147 128 235 213c34,34 69,68 102,102 -124,43 -247,88 -365,140 -28,-79 -54,-160 -79,-241l0 0 -57 -200 -7 -26zm-234 -154l45 166 2 5c82,296 192,585 330,860 0,0 0,0 0,4 50,-26 95,-52 146,-75l-84 -199 -2 0 -21 -52c129,-58 259,-107 399,-150 68,69 129,144 197,215l45 -13 -4 0c39,-11 81,-23 122,-32 -199,-249 -427,-489 -682,-715l-15 -14 -12 -11c-83,-73 -169,-144 -258,-214 -78,26 -157,55 -236,88l28 137zm1454 160l-38 -160 -129 -489c-84,13 -168,26 -253,43l146 446 48 141 177 536c208,-39 416,-62 629,-72 -5,-29 -5,-59 -5,-91 -158,6 -321,23 -472,45l-46 -179 1 0 -49 -188 -9 -32zm1152 -100l-10 -60 -7 -28c-36,-175 -80,-349 -133,-522 -90,-4 -174,-7 -259,-7l203 557 45 166 50 214 1 0c17,81 32,161 44,241 51,4 107,10 163,17 45,-87 93,-172 144,-258l2 0 135 -214 90 -134c12,-16 24,-33 36,-49l329 -413c-79,-16 -163,-29 -242,-46 -112,154 -215,309 -308,466l-6 10 -8 14c-73,125 -140,250 -200,376 -11,33 -23,59 -23,75 0,-26 0,-49 6,-75l-1 -10 1 0 -7 -47c-13,-91 -28,-182 -45,-273zm1390 58l140 -118 28 -26 -6 26 -39 166 -26 97c-32,118 -69,234 -109,349 -118,-53 -242,-98 -365,-137 118,-122 245,-241 377,-357zm421 1034l224 -192 172 -152c85,-73 170,-146 256,-219 -14,73 -30,145 -48,216l-48 155 -67 192 -191 394c28,26 56,55 78,81l865 -472 354 -195 12 -7c-51,-55 -107,-110 -163,-162l-14 8c-277,170 -558,343 -835,516 19,-38 36,-77 53,-116l20 -44 17 -44c15,-39 30,-79 45,-119l11 -32 62 -199 -3 0c36,-139 62,-281 76,-426 -50,-36 -101,-68 -157,-101 -315,299 -629,602 -944,905 20,13 40,26 60,38l75 50 90 -75zm-452 -142l30 15 34 -65 15 -36c83,-177 155,-358 215,-544l0 0 7 -22c52,-165 95,-334 128,-505 -78,-29 -157,-58 -236,-88 -371,296 -691,619 -961,957 0,0 -5,0 -5,3 48,12 97,23 142,36l-2 0 23 7 3 -4 2 -3c61,-69 126,-142 191,-211 135,42 270,94 399,149 -8,21 -16,42 -24,62l-4 0 -78 189c40,21 80,40 121,60z"/>
  <g style="clip-path:url(#id1)">
   <image x="-1004" y="-1449" width="19823" height="11484" xlink:href="logo galvan electric redondo_Images\logo galvan electric redondo_ImgID2.png"/>
  </g>
  <g>
   <path class="fil0" d="M5997 4831c-96,-98 -186,-206 -264,-319 -152,65 -298,130 -444,195l119 160c14,18 29,36 43,53l113 125c-28,20 -56,36 -84,52 -107,-107 -202,-224 -287,-348l-331 147 -105 45 -3 1 -2 1 -4 2 -2 1 -2 1 -2 1 -2 1 -2 1 -3 1 -2 0 -2 1 -2 1 -2 1 155 203 8 9 46 55c52,61 106,119 162,176 -28,16 -56,32 -84,52 -53,-53 -103,-107 -152,-163l0 0 -1 0c-27,-32 -53,-63 -79,-95l-27 -32 -11 -15c-83,-107 -160,-219 -230,-336 410,-153 820,-309 1230,-462 96,156 208,302 337,432 -28,17 -56,36 -84,53zm242 322l140 -117c-39,-30 -79,-62 -118,-95 -332,248 -663,492 -995,739 76,63 153,123 233,180l3 2 3 2c133,94 273,181 419,262 13,-14 25,-27 37,-41l25 -27 -298 -182c-22,-14 -44,-29 -65,-44l-109 -77 62 -49 -4 0c170,-143 340,-284 511,-426l4 0 152 -127zm4230 -111l-53 39 -2 1c-23,16 -47,32 -68,48l168 160 2 0c148,138 296,277 444,416l-2 0 122 113 142 135c29,-20 57,-40 84,-60l46 -32 49 -34 0 -1 1 0c-211,-179 -425,-358 -639,-537l4 0 -236 -196 0 0 -62 -52zm326 -107l231 159 286 196 5 0c110,74 221,149 332,224 17,16 51,16 85,3 39,-13 78,-39 112,-75 108,-106 208,-221 299,-342l4 -6 9 -11c32,-44 63,-87 93,-132 28,-42 45,-85 45,-117 5,-36 -12,-59 -34,-69 -107,-39 -208,-78 -315,-117 -34,59 -67,114 -107,170 96,42 197,84 293,126l-113 150 -168 196 3 0c-22,23 -43,45 -65,68l-114 -68 1 0 -325 -196 0 0 -7 -4c-155,-94 -310,-187 -465,-282 90,-91 174,-192 247,-300 90,39 180,78 270,114 33,-45 67,-94 95,-146 -95,-36 -191,-69 -286,-104 -29,-10 -51,-10 -85,6 -28,13 -50,33 -67,65 -84,121 -180,231 -281,335 -23,26 -39,49 -39,75 -6,26 5,46 28,59l4 3 4 3 4 2 4 3 4 3 4 3 5 3 4 3zm-3966 927l-79 -29c79,-117 157,-238 241,-355 130,52 265,98 405,137 11,-26 22,-52 34,-78 -186,-52 -360,-114 -534,-195 -129,173 -260,345 -391,517l-2 3 -191 251 -113 150c247,117 511,211 787,286 11,-29 22,-55 34,-81 -191,-52 -383,-114 -568,-189 84,-124 169,-247 247,-371 146,59 292,111 444,153 11,-29 28,-55 39,-81l-353 -118zm943 0l40 -156 -1 0 1 -3c135,23 269,36 410,42l-11 117 -2 24c-4,33 -7,66 -10,100 62,3 124,3 186,3l0 -3 0 -4 0 -4 0 -4 0 -4 0 -4 0 -3 0 -4 0 -4 0 -4 0 -4 0 -4 0 -4 0 -3 0 -4 0 -4 0 -4 0 -4 0 -4 0 -4 0 -4 0 -3 0 -4 0 -4 0 -4 0 -4 0 -4 0 -4 0 -4 0 -4 0 -3 0 -4 0 -4 0 -120c6,-23 -11,-39 -34,-55 -22,-13 -56,-23 -90,-23 -157,-7 -309,-23 -460,-49 -34,-6 -68,-3 -96,7 -28,9 -45,22 -51,45 -15,45 -30,90 -45,135l-22 60 -22 71c-69,208 -137,415 -208,623 -6,23 5,42 33,62 28,19 73,35 124,45 219,36 444,59 669,68 56,0 101,-3 134,-19 40,-13 57,-29 57,-52 0,-91 0,-182 5,-270 -73,-4 -140,-4 -213,-7 -6,85 -11,173 -23,261 -185,-10 -376,-30 -562,-56 41,-152 80,-304 119,-455l5 -20 67 -251zm1293 0l-40 -156c96,-13 186,-32 281,-52 -11,-26 -22,-55 -28,-81 -230,52 -472,81 -708,91 0,14 0,28 1,42l-1 0 2 11c1,10 2,20 4,31 95,-3 191,-9 286,-22l23 136 36 178c40,221 79,442 121,662 73,-6 152,-16 225,-29 -50,-206 -103,-412 -155,-618l-47 -193zm747 0l-32 -55c-45,-82 -91,-165 -137,-247 135,-43 265,-95 388,-153 84,114 174,224 259,338l-281 117 -28 10c0,10 -6,20 -12,26 231,130 478,244 748,339 67,-33 140,-69 208,-108l-57 -16c-46,-14 -93,-28 -139,-43l0 0 -10 -4 -1 0 -10 -3 0 0c-172,-58 -336,-123 -491,-194 3,-1 7,-3 12,-5l1 0 3 -2 40 -16c22,-10 39,-16 56,-23l4 -2 2 0c34,-17 62,-33 83,-49l1 0 3 -2c50,-39 63,-74 36,-103 -95,-114 -196,-225 -292,-338 -17,-17 -39,-26 -67,-30 -34,0 -62,7 -96,23 -174,85 -360,153 -551,205l158 335 5 11 309 660c73,-20 147,-42 220,-65l-191 -355 -141 -251zm719 -768l0 0 0 0z"/>
  </g>
  <g>
   <path class="fil1" d="M13029 5892l1320 -1120c180,99 387,155 607,155 698,0 1264,-566 1264,-1264 0,-394 -181,-747 -464,-978l1054 -1439 -1422 1229c-135,-49 -280,-76 -432,-76 -698,0 -1264,566 -1264,1264 0,368 158,700 410,931l-1073 1298zm1463 -1241l1393 -1182 -674 -41 443 -604c240,200 393,502 393,839 0,603 -488,1091 -1091,1091 -166,0 -323,-37 -464,-103zm742 -2044l-1300 1123 915 -40 -637 771c-214,-199 -347,-483 -347,-798 0,-603 488,-1091 1091,-1091 96,0 189,12 278,35z"/>
   <path class="fil1" d="M3781 5892l-1320 -1120c-180,99 -387,155 -607,155 -698,0 -1264,-566 -1264,-1264 0,-394 181,-747 464,-978l-1054 -1439 1422 1229c135,-49 281,-76 432,-76 698,0 1264,566 1264,1264 0,368 -158,700 -410,931l1073 1298zm-1463 -1241l-1393 -1182 674 -41 -443 -604c-240,200 -393,502 -393,839 0,603 488,1091 1091,1091 166,0 323,-37 464,-103zm-742 -2044l1300 1123 -915 -40 637 771c214,-199 347,-483 347,-798 0,-603 -488,-1091 -1091,-1091 -96,0 -189,12 -278,35z"/>
  </g>
  <path class="fil2" d="M8328 2375c543,0 984,441 984,985 0,544 -441,985 -984,985 -544,0 -985,-441 -985,-985 0,-544 441,-985 985,-985zm0 135c469,0 850,381 850,850 0,470 -381,851 -850,851 -470,0 -851,-381 -851,-851 0,-469 381,-850 851,-850z"/>
  <path class="fil3" style="mask:url(#id2)" d="M8328 2375c543,0 984,441 984,985 0,544 -441,985 -984,985 -544,0 -985,-441 -985,-985 0,-544 441,-985 985,-985zm0 135c469,0 850,381 850,850 0,470 -381,851 -850,851 -470,0 -851,-381 -851,-851 0,-469 381,-850 851,-850z"/>
  <path class="fil4" style="mask:url(#id4)" d="M8328 2375c543,0 984,441 984,985 0,544 -441,985 -984,985 -544,0 -985,-441 -985,-985 0,-544 441,-985 985,-985zm0 135c469,0 850,381 850,850 0,470 -381,851 -850,851 -470,0 -851,-381 -851,-851 0,-469 381,-850 851,-850z"/>
  <path class="fil2" style="mask:url(#id6)" d="M8328 2375c543,0 984,441 984,985 0,544 -441,985 -984,985 -544,0 -985,-441 -985,-985 0,-544 441,-985 985,-985zm0 135c469,0 850,381 850,850 0,470 -381,851 -850,851 -470,0 -851,-381 -851,-851 0,-469 381,-850 851,-850z"/>
  <polygon class="fil5" points="6826,5098 9052,3209 8526,3178 9773,1477 7531,3413 8244,3381 "/>
  <polygon class="fil4" style="mask:url(#id8)" points="6826,5098 9052,3209 8526,3178 9773,1477 7531,3413 8244,3381 "/>
  <polygon class="fil3" style="mask:url(#id10)" points="6826,5098 9052,3209 8526,3178 9773,1477 7531,3413 8244,3381 "/>
 </g>
</svg>
