<?xml version="1.0" encoding="UTF-8" standalone="no"?>
<!DOCTYPE svg PUBLIC "-//W3C//DTD SVG 1.1//EN" "http://www.w3.org/Graphics/SVG/1.1/DTD/svg11.dtd">
<svg width="100%" height="100%" viewBox="0 0 503 202" version="1.1" xmlns="http://www.w3.org/2000/svg" xmlns:xlink="http://www.w3.org/1999/xlink" xml:space="preserve" xmlns:serif="http://www.serif.com/" style="fill-rule:evenodd;clip-rule:evenodd;stroke-linejoin:round;stroke-miterlimit:2;">
    <g id="Capa_x0020_1">
        <path d="M190.753,50.951C190.44,51.747 189.928,52.43 188.932,53.113C184.892,55.929 181.023,59.03 177.496,62.444C176.671,63.326 175.647,63.809 174.822,64.094C173.798,64.378 172.802,64.293 172.119,63.895C161.565,58.148 151.153,52.316 140.57,46.598C139.887,46.2 139.574,45.432 139.887,44.351C140.058,43.27 140.912,42.217 142.078,40.937C146.914,36.243 152.205,31.947 157.639,28.021L157.525,28.021L158.862,27.14C160.37,26.172 161.736,25.575 163.073,25.376C164.41,25.091 165.263,25.29 165.918,25.859L168.279,28.021L168.165,28.021C169.616,29.387 171.038,30.752 172.461,32.09C170.611,33.37 168.762,34.536 166.942,35.873C164.58,33.939 162.39,32.004 160.057,30.041C155.249,33.398 150.755,37.068 146.573,41.051L146.345,41.221L145.947,41.62L151.978,45.318L159.374,50.012C163.812,52.771 168.25,55.531 172.717,58.29L173.627,58.859L174.111,59.144L175.476,59.997C178.691,56.982 182.048,54.279 185.717,51.633C182.218,48.732 178.691,45.802 175.163,42.786L171.806,45.318L169.445,47.167C168.62,46.598 167.767,45.915 166.942,45.318C170.441,42.502 174.139,39.771 178.008,37.438C180.568,39.856 183.186,42.302 185.803,44.777L186.4,45.318L187.367,46.257L187.595,46.484C188.448,47.281 189.302,48.077 190.155,48.902L190.326,49.073L190.354,49.073C190.753,49.414 190.867,49.756 190.867,50.183C190.867,50.41 190.838,50.695 190.753,50.951ZM193.882,21.251L192.773,16.642L192.602,16.13C193.285,16.699 193.939,17.24 194.622,17.78L199.003,21.592L206.001,27.965C207.054,28.989 208.078,30.013 209.073,31.037C205.375,32.289 201.677,33.654 198.149,35.219C197.324,32.829 196.528,30.44 195.788,28.021L195.817,28.021L194.081,22.019L193.882,21.251ZM186.912,16.642L188.249,21.592L188.306,21.763C190.753,30.61 194.024,39.23 198.149,47.452L198.149,47.565C199.657,46.769 200.994,46.001 202.53,45.318L199.998,39.401L199.942,39.401L199.316,37.836C203.185,36.072 207.054,34.621 211.235,33.37C213.255,35.39 215.104,37.637 217.124,39.771L218.461,39.401L218.376,39.401C219.542,39.031 220.766,38.69 221.989,38.405C216.072,30.98 209.244,23.811 201.62,17.04L201.165,16.642L200.795,16.329C198.32,14.139 195.76,12.005 193.114,9.928C190.753,10.697 188.42,11.578 186.059,12.546L186.912,16.642ZM230.353,21.421L229.215,16.642L225.346,2.048C222.842,2.418 220.31,2.816 217.807,3.3L222.16,16.642L223.582,20.853L228.873,36.869C235.075,35.702 241.305,35.02 247.678,34.707C247.507,33.853 247.507,32.971 247.507,32.004C242.813,32.203 237.948,32.687 233.397,33.37L232.031,28.021L232.06,28.021L230.58,22.389L230.353,21.421ZM264.775,18.434L264.462,16.642L264.263,15.789C263.182,10.583 261.845,5.377 260.28,0.199C257.578,0.085 255.074,0 252.542,0L258.602,16.642L259.939,21.592L261.446,28.021L261.475,28.021C261.987,30.411 262.414,32.801 262.784,35.219C264.291,35.304 265.97,35.503 267.648,35.702C268.985,33.114 270.436,30.553 271.944,28.021L272.029,28.021L276.04,21.592L278.743,17.609C279.113,17.097 279.454,16.614 279.796,16.13L289.639,3.784C287.306,3.3 284.774,2.93 282.441,2.418C279.056,7.027 275.983,11.664 273.224,16.329L273.025,16.642L272.797,17.069C270.607,20.796 268.615,24.551 266.823,28.306C266.482,29.273 266.14,30.041 266.14,30.525C266.14,29.757 266.14,29.074 266.311,28.306L266.283,28.021L266.311,28.021L266.084,26.599C265.714,23.868 265.287,21.137 264.775,18.434ZM306.281,20.17L310.463,16.642L311.316,15.846L311.145,16.642L309.951,21.592L309.183,24.522C308.215,28.021 307.134,31.492 305.939,34.906C302.412,33.37 298.714,32.004 295.015,30.838C298.571,27.196 302.355,23.612 306.281,20.17ZM318.855,51.064L325.569,45.318L330.689,40.795C333.25,38.604 335.782,36.414 338.342,34.223C337.944,36.414 337.46,38.576 336.919,40.709L335.469,45.318L333.449,51.064L327.759,62.814C328.584,63.61 329.438,64.492 330.092,65.26L355.951,51.15L366.534,45.318L366.875,45.119C365.368,43.469 363.689,41.819 362.011,40.254L361.584,40.51C353.334,45.602 344.913,50.752 336.663,55.929C337.204,54.791 337.716,53.625 338.228,52.458L338.826,51.15L339.338,49.841C339.793,48.675 340.248,47.48 340.675,46.257L341.016,45.318L342.865,39.401L342.751,39.401C343.832,35.247 344.629,30.98 345.056,26.656C343.548,25.575 342.012,24.608 340.333,23.64C330.945,32.573 321.557,41.62 312.141,50.666C312.739,51.064 313.336,51.434 313.962,51.804L316.181,53.283L318.855,51.064ZM305.342,46.797L306.281,47.252L307.276,45.318L307.732,44.265C310.207,38.974 312.34,33.54 314.132,28.021L314.161,28.021L314.332,27.339C315.925,22.389 317.205,17.353 318.172,12.261C315.839,11.379 313.478,10.497 311.145,9.615C300.051,18.491 290.492,28.107 282.441,38.234C282.441,38.234 282.271,38.234 282.271,38.32C283.721,38.661 285.172,39.002 286.509,39.401L286.452,39.401L287.135,39.571L287.306,39.401C289.098,37.296 291.061,35.133 292.996,33.057C297.035,34.337 301.075,35.873 304.915,37.552C304.688,38.149 304.432,38.775 304.176,39.401L304.09,39.401L301.729,45.033C302.952,45.659 304.147,46.2 305.342,46.797Z" style="fill:white;"/>
        <g>
            <path d="M179.174,144.318C176.33,141.416 173.655,138.201 171.294,134.787C166.771,136.75 162.39,138.685 158.037,140.619L161.593,145.427C162.02,145.968 162.447,146.48 162.874,146.992L166.259,150.747C165.405,151.316 164.58,151.828 163.727,152.312C160.541,149.097 157.696,145.598 155.164,141.899L145.264,146.281L142.135,147.646L142.049,147.674L141.822,147.788L141.737,147.817L141.68,147.845L141.623,147.845L141.509,147.902L141.424,147.931L141.253,148.016L145.89,154.075L146.118,154.36L147.483,155.981C149.048,157.802 150.669,159.566 152.319,161.244C151.494,161.728 150.641,162.211 149.816,162.809C148.251,161.244 146.743,159.623 145.264,157.944L145.264,157.916C144.439,157.005 143.643,156.038 142.874,155.099L142.078,154.161L141.765,153.677C139.262,150.491 136.957,147.134 134.852,143.635C147.113,139.083 159.374,134.418 171.636,129.837C174.48,134.503 177.837,138.884 181.706,142.781C180.853,143.265 180.028,143.834 179.174,144.318ZM186.4,153.962L190.611,150.462C189.416,149.581 188.249,148.613 187.083,147.646C177.183,155.014 167.255,162.325 157.355,169.722C159.602,171.599 161.935,173.392 164.324,175.099L164.41,175.155L164.467,175.212C168.449,178.029 172.631,180.617 177.012,183.036C177.411,182.637 177.752,182.211 178.093,181.812L178.861,180.987L169.929,175.554C169.303,175.127 168.649,174.7 168.023,174.245L164.751,171.941L166.6,170.49L166.486,170.49C171.55,166.223 176.642,161.984 181.763,157.745L181.877,157.745L186.4,153.962ZM312.824,150.662L311.202,151.799L311.145,151.828C310.463,152.312 309.751,152.795 309.126,153.279L314.161,158.03L314.218,158.03C318.627,162.183 323.065,166.336 327.475,170.49L327.418,170.49L331.059,173.875L335.298,177.886C336.18,177.289 337.005,176.692 337.801,176.123L339.167,175.155L340.646,174.131L340.646,174.103L340.675,174.074C334.359,168.755 327.958,163.406 321.586,158.03L321.7,158.03L314.673,152.198L312.824,150.662ZM322.525,147.447L329.438,152.198L338.001,158.03L338.143,158.03C341.443,160.277 344.743,162.496 348.071,164.743C348.583,165.227 349.579,165.227 350.575,164.857C351.769,164.459 352.936,163.691 353.931,162.61C357.175,159.424 360.162,155.981 362.864,152.368L363.006,152.198L363.262,151.856C364.201,150.576 365.14,149.268 366.022,147.931C366.875,146.65 367.387,145.399 367.387,144.431C367.53,143.35 367.046,142.668 366.363,142.383C363.177,141.217 360.162,140.05 356.975,138.884C355.951,140.619 354.956,142.298 353.789,143.948C356.634,145.199 359.65,146.48 362.494,147.731L359.138,152.198L354.102,158.03L354.216,158.03C353.562,158.741 352.907,159.424 352.253,160.078L348.868,158.03L348.896,158.03L339.195,152.198L339.167,152.198L338.968,152.084C334.331,149.296 329.694,146.48 325.057,143.635C327.759,140.932 330.263,137.917 332.453,134.702C335.127,135.868 337.83,137.035 340.504,138.116C341.528,136.75 342.524,135.271 343.377,133.735C340.504,132.654 337.659,131.687 334.814,130.606C333.961,130.321 333.307,130.321 332.282,130.805C331.457,131.203 330.775,131.772 330.263,132.739C327.759,136.352 324.914,139.652 321.87,142.781C321.216,143.549 320.704,144.232 320.704,145C320.533,145.797 320.875,146.366 321.557,146.764L321.785,146.935L321.927,147.02L322.155,147.191L322.297,147.276L322.525,147.447ZM204.038,175.155L201.677,174.274C204.038,170.774 206.371,167.19 208.903,163.691C212.772,165.227 216.783,166.593 220.993,167.759C221.335,166.991 221.647,166.223 221.989,165.426C216.441,163.861 211.235,162.041 206.058,159.594C202.189,164.772 198.263,169.921 194.366,175.07L194.28,175.155L188.591,182.637L185.234,187.132C192.602,190.631 200.51,193.448 208.732,195.667C209.073,194.813 209.415,194.017 209.728,193.248C204.038,191.684 198.32,189.835 192.773,187.616C195.304,183.917 197.808,180.219 200.169,176.521C204.522,178.256 208.903,179.821 213.426,181.101C213.767,180.219 214.279,179.423 214.592,178.655L204.038,175.155ZM232.23,175.155L233.397,170.49L233.368,170.49L233.397,170.405C237.436,171.059 241.476,171.457 245.658,171.656L245.316,175.155L245.259,175.867C245.146,176.862 245.06,177.858 245.003,178.854C246.824,178.939 248.673,178.939 250.522,178.939L250.522,171.571C250.693,170.888 250.209,170.405 249.527,169.893C248.844,169.523 247.848,169.238 246.824,169.238C242.13,169.039 237.607,168.555 233.084,167.759C232.06,167.56 231.064,167.674 230.21,167.958C229.385,168.243 228.873,168.641 228.703,169.324C228.247,170.661 227.792,171.998 227.337,173.363L226.683,175.155L226.029,177.261C223.952,183.462 221.932,189.664 219.798,195.866C219.628,196.548 219.969,197.146 220.822,197.715C221.647,198.312 223.013,198.796 224.521,199.08C231.064,200.161 237.778,200.844 244.491,201.129C246.17,201.129 247.507,201.015 248.503,200.531C249.697,200.161 250.209,199.678 250.209,198.995C250.209,196.264 250.209,193.533 250.352,190.916C248.19,190.802 246.17,190.802 243.979,190.717C243.809,193.248 243.638,195.866 243.325,198.511C237.778,198.198 232.06,197.629 226.512,196.833C227.735,192.281 228.902,187.758 230.068,183.235L230.21,182.637L232.23,175.155ZM270.834,175.155L269.668,170.49C272.513,170.092 275.215,169.523 278.06,168.925C277.719,168.157 277.406,167.275 277.235,166.507C270.351,168.043 263.125,168.925 256.07,169.238C256.07,169.665 256.07,170.063 256.098,170.49L256.07,170.49L256.098,170.803C256.127,171.116 256.184,171.429 256.24,171.742C259.085,171.656 261.959,171.457 264.803,171.059L265.486,175.155L266.539,180.475C267.734,187.075 268.928,193.647 270.18,200.247C272.342,200.048 274.703,199.763 276.894,199.365C275.386,193.22 273.821,187.075 272.257,180.902L270.834,175.155ZM293.166,175.155L292.227,173.505C290.862,171.03 289.496,168.584 288.131,166.109C292.171,164.857 296.039,163.293 299.709,161.529C302.241,164.943 304.915,168.243 307.447,171.656L299.055,175.155L298.202,175.44C298.202,175.753 298.031,176.037 297.86,176.236C304.745,180.105 312.141,183.519 320.192,186.336C322.212,185.368 324.402,184.287 326.422,183.121L324.744,182.637C323.321,182.239 321.956,181.812 320.59,181.357L320.562,181.357L320.277,181.243L320.249,181.243L319.964,181.158L319.936,181.13C314.787,179.423 309.894,177.488 305.257,175.355C305.37,175.326 305.484,175.269 305.626,175.212L305.655,175.212L305.769,175.155L306.935,174.672C307.618,174.387 308.101,174.188 308.614,173.989L308.756,173.932L308.784,173.904C309.837,173.42 310.662,172.936 311.288,172.453L311.316,172.453L311.373,172.396C312.909,171.23 313.279,170.177 312.483,169.324C309.638,165.91 306.594,162.61 303.749,159.196C303.237,158.712 302.583,158.428 301.729,158.343C300.733,158.343 299.88,158.513 298.884,159.025C293.678,161.529 288.131,163.577 282.441,165.142L287.135,175.155L287.277,175.468L296.523,195.183C298.714,194.614 300.904,193.931 303.066,193.248L297.377,182.637L293.166,175.155Z" style="fill:white;"/>
        </g>
        <path d="M389.293,176.037L428.75,142.582C434.127,145.512 440.3,147.191 446.872,147.191C467.724,147.191 484.622,130.293 484.622,109.44C484.622,97.663 479.217,87.137 470.768,80.224L502.26,37.239L459.759,73.937C455.748,72.486 451.395,71.689 446.872,71.689C426.019,71.689 409.093,88.588 409.093,109.44C409.093,120.45 413.815,130.35 421.354,137.262L389.293,176.037ZM432.989,138.969L474.609,103.637L454.496,102.442L467.724,84.377C474.893,90.351 479.473,99.369 479.473,109.44C479.473,127.448 464.879,142.042 446.872,142.042C441.893,142.042 437.199,140.932 432.989,138.969ZM455.179,77.891L416.318,111.46L443.685,110.237L424.625,133.28C418.253,127.334 414.27,118.856 414.27,109.44C414.27,91.432 428.864,76.839 446.872,76.839C449.745,76.839 452.533,77.208 455.179,77.891Z" style="fill:rgb(254,254,254);fill-opacity:0.2;"/>
        <path d="M112.975,176.037L73.546,142.582C68.141,145.512 61.968,147.191 55.396,147.191C34.544,147.191 17.646,130.293 17.646,109.44C17.646,97.663 23.051,87.137 31.5,80.224L0.008,37.239L42.509,73.937C46.521,72.486 50.873,71.689 55.396,71.689C76.249,71.689 93.176,88.588 93.176,109.44C93.176,120.45 88.453,130.35 80.914,137.262L112.975,176.037ZM69.279,138.969L27.659,103.637L47.772,102.442L34.544,84.377C27.375,90.351 22.795,99.369 22.795,109.44C22.795,127.448 37.389,142.042 55.396,142.042C60.375,142.042 65.069,140.932 69.279,138.969ZM47.089,77.891L85.95,111.46L58.611,110.237L77.643,133.28C84.015,127.334 87.998,118.856 87.998,109.44C87.998,91.432 73.404,76.839 55.396,76.839C52.523,76.839 49.764,77.208 47.089,77.891Z" style="fill:rgb(254,254,254);fill-opacity:0.2;"/>
        <path d="M248.815,70.978C265.059,70.978 278.259,84.15 278.259,100.394C278.259,116.666 265.059,129.837 248.815,129.837C232.572,129.837 219.4,116.666 219.4,100.394C219.4,84.15 232.572,70.978 248.815,70.978ZM248.815,74.989C262.84,74.989 274.22,86.369 274.22,100.394C274.22,114.447 262.84,125.826 248.815,125.826C234.791,125.826 223.411,114.447 223.411,100.394C223.411,86.369 234.791,74.989 248.815,74.989Z" style="fill:white;"/>
        <path d="M203.953,152.312L270.436,95.87L254.761,94.932L292,44.123L225.033,101.958L246.34,101.019L203.953,152.312Z" style="fill:white;"/>
    </g>
</svg>
